# This file uses centimeters as units for non-parametric coordinates.

mtllib car_l_tri.mtl
g default
v -0.470013 2.015970 0.680591
v -0.613002 1.923212 0.414978
v 0.000000 1.962406 0.696363
v -0.000000 1.814671 0.414977
v 0.470013 2.015970 0.680591
v 0.613002 1.923212 0.414977
v -0.401235 2.600260 0.558166
v -0.517093 2.720287 0.404094
v 0.000000 2.666232 0.568447
v 0.000000 2.812490 0.414977
v 0.401235 2.600260 0.558166
v 0.517093 2.720287 0.404094
v -0.536724 2.785453 -1.088308
v -0.411535 2.671339 -1.265108
v 0.000000 2.732290 -1.280880
v 0.000000 2.897258 -1.088308
v 0.411535 2.671339 -1.265108
v 0.536724 2.785453 -1.088308
v 0.000000 1.814671 -1.108994
v 0.000000 1.978307 -1.301566
v -0.470013 2.031871 -1.285794
v -0.613002 1.923212 -1.108994
v 0.470013 2.031871 -1.285794
v 0.613002 1.923212 -1.108994
v -0.488012 2.739413 -1.220046
v -0.477290 2.542194 -1.280880
v -0.664673 2.542195 -1.088308
v -0.281491 2.897258 -1.088308
v 0.000000 2.842220 -1.220046
v -0.235442 2.717168 -1.280880
v 0.281491 2.897258 -1.088308
v 0.488012 2.739413 -1.220046
v 0.235442 2.717168 -1.280880
v -0.512541 2.088823 -1.301566
v -0.561547 1.967520 -1.240732
v -0.698834 2.047838 -1.108994
v 0.664673 2.542195 -1.088308
v 0.477290 2.542194 -1.280880
v 0.698834 2.047838 -1.108994
v 0.561547 1.967520 -1.240732
v 0.512541 2.088823 -1.301566
v 0.000000 1.870213 -1.240732
v 0.296699 1.991241 -1.301566
v 0.355506 1.833253 -1.108994
v -0.355506 1.833253 -1.108994
v -0.296699 1.991241 -1.301566
v 0.000000 2.132100 0.716641
v -0.000000 2.542194 0.627859
v 0.000000 2.897258 0.195791
v -0.556586 2.795543 0.195791
v 0.556586 2.795543 0.195791
v 0.000000 2.542194 -1.301158
v 0.000000 2.083552 -1.321844
v 0.000000 1.796156 0.195791
v -0.630154 1.908443 0.195791
v 0.630154 1.908443 0.195791
v 0.000000 2.897258 -0.876004
v -0.552961 2.800799 -0.876004
v 0.552961 2.800799 -0.876004
v -0.630154 1.908443 -0.876004
v 0.000000 1.796156 -0.876004
v 0.630154 1.908443 -0.876004
v 0.000000 2.897258 -0.296194
v -0.552961 2.800799 -0.296194
v 0.552961 2.800799 -0.296194
v 0.000000 1.796156 -0.296194
v -0.630154 1.908443 -0.296194
v 0.630154 1.908443 -0.296194
v -0.561547 1.946049 0.560052
v -0.355506 1.833253 0.414978
v 0.000000 1.848742 0.560052
v -0.296699 1.975341 0.696363
v -0.512541 2.137372 0.696363
v -0.698834 2.047838 0.414978
v 0.355506 1.833253 0.414978
v 0.561547 1.946049 0.560052
v 0.296699 1.975341 0.696363
v 0.698834 2.047838 0.414978
v 0.512541 2.137372 0.696363
v -0.447049 2.648947 0.527861
v -0.662617 2.542194 0.406645
v -0.466365 2.542194 0.612407
v -0.235442 2.651111 0.568447
v 0.000000 2.735246 0.511277
v -0.260994 2.801508 0.400498
v 0.235442 2.651111 0.568447
v 0.447049 2.648947 0.527861
v 0.260994 2.801508 0.400498
v 0.466365 2.542194 0.612407
v 0.662617 2.542194 0.406645
v -0.290452 2.897258 -0.296194
v 0.290452 2.897258 -0.296194
v -0.365307 1.815269 -0.296194
v 0.365307 1.815269 -0.296194
v 0.718436 2.040590 -0.296194
v 0.684382 2.542195 -0.296194
v -0.718436 2.040590 -0.296194
v -0.684382 2.542195 -0.296194
v -0.326102 1.865733 0.560052
v -0.640028 2.079293 0.560052
v 0.326102 1.865733 0.560052
v 0.640028 2.079293 0.560052
v -0.599944 2.542194 0.560506
v -0.246026 2.717663 0.511171
v 0.246026 2.717663 0.511171
v 0.599944 2.542194 0.560506
v -0.605548 2.542195 -1.220046
v -0.254610 2.824011 -1.220046
v 0.254610 2.824011 -1.220046
v -0.640028 2.069583 -1.240732
v 0.605548 2.542195 -1.220046
v 0.640028 2.069583 -1.240732
v 0.326102 1.887204 -1.240732
v -0.326102 1.887204 -1.240732
v -0.286898 2.137108 0.716641
v 0.286898 2.137108 0.716641
v -0.250181 2.542194 0.627859
v 0.250181 2.542194 0.627859
v -0.285930 2.897258 0.195791
v 0.285930 2.897258 0.195791
v -0.250181 2.542194 -1.301158
v 0.250181 2.542194 -1.301158
v -0.286898 2.088560 -1.321844
v 0.286898 2.088560 -1.321844
v -0.365307 1.815269 0.195791
v 0.365307 1.815269 0.195791
v 0.718436 2.040590 0.195791
v 0.691332 2.542194 0.195790
v -0.718436 2.040590 0.195791
v -0.691332 2.542194 0.195790
v -0.290452 2.897258 -0.876004
v -0.684382 2.542195 -0.876004
v 0.290452 2.897258 -0.876004
v 0.684382 2.542195 -0.876004
v -0.365307 1.815269 -0.876004
v -0.718436 2.040590 -0.876004
v 0.718436 2.040590 -0.876004
v 0.365307 1.815269 -0.876004
vt 0.153991 0.559051
vt 0.153991 0.619685
vt 0.049926 0.619685
vt 0.049926 0.559051
vt 0.153991 0.498674
vt 0.563191 0.462954
vt 0.153991 0.438314
vt 0.049926 0.438314
vt 0.153991 0.377712
vt 0.731295 0.413695
vt 0.153991 0.878520
vt 0.153991 0.819464
vt 0.276561 0.819464
vt 0.276561 0.878520
vt 0.153991 0.041868
vt 0.276561 0.041868
vt 0.153991 0.118380
vt 0.276561 0.118380
vt 0.153991 0.177557
vt 0.276561 0.177557
vt 0.153991 0.786146
vt 0.276561 0.786146
vt 0.384806 0.129060
vt 0.355582 0.173686
vt 0.153991 0.679842
vt 0.276561 0.679842
vt 0.349383 0.325684
vt 0.276561 0.619685
vt 0.475075 0.197468
vt 0.448176 0.176037
vt 0.497478 0.150297
vt 0.509802 0.188435
vt 0.420356 0.157796
vt 0.480810 0.120163
vt 0.572615 0.106979
vt 0.571699 0.142627
vt 0.570592 0.185482
vt 0.430198 0.205020
vt 0.399876 0.190804
vt 0.467018 0.222983
vt 0.465674 0.314331
vt 0.434951 0.310730
vt 0.399343 0.315122
vt 0.645424 0.154163
vt 0.631150 0.191612
vt 0.663617 0.124930
vt 0.722046 0.165673
vt 0.693325 0.182450
vt 0.665359 0.202455
vt 0.709780 0.212345
vt 0.672080 0.228366
vt 0.740792 0.199718
vt 0.734833 0.323992
vt 0.699512 0.317731
vt 0.668647 0.319701
vt 0.474944 0.334538
vt 0.461118 0.344262
vt 0.431806 0.365837
vt 0.505847 0.369549
vt 0.495354 0.400391
vt 0.511747 0.349969
vt 0.566117 0.356654
vt 0.565549 0.377534
vt 0.564753 0.406584
vt 0.625570 0.372862
vt 0.634400 0.404181
vt 0.620751 0.352724
vt 0.658312 0.339401
vt 0.671599 0.349865
vt 0.699718 0.372985
vt 0.324702 0.619685
vt 0.667051 0.730956
vt 0.695681 0.686589
vt 0.324702 0.679842
vt 0.648106 0.714337
vt 0.662916 0.684769
vt 0.671516 0.581911
vt 0.702964 0.577616
vt 0.324702 0.786146
vt 0.613756 0.753244
vt 0.607826 0.725051
vt 0.324702 0.559051
vt 0.324702 0.498674
vt 0.553412 0.758029
vt 0.553920 0.728403
vt 0.493267 0.751177
vt 0.500161 0.723204
vt 0.324702 0.438314
vt 0.324702 0.377712
vt 0.440768 0.727076
vt 0.460271 0.711115
vt 0.663388 0.567941
vt 0.686670 0.553974
vt 0.324702 0.819464
vt 0.413676 0.681753
vt 0.446484 0.681057
vt 0.324702 0.317318
vt 0.324702 0.210931
vt 0.410133 0.572595
vt 0.441416 0.577965
vt 0.324702 0.177557
vt 0.427229 0.549524
vt 0.450018 0.564282
vt 0.324702 0.041868
vt 0.557472 0.521285
vt 0.480194 0.526967
vt 0.324702 0.118380
vt 0.556967 0.550713
vt 0.489089 0.554347
vt 0.634509 0.529614
vt 0.624680 0.556672
vt 0.324702 0.878520
vt 0.512212 0.225863
vt 0.569531 0.226408
vt 0.566957 0.324587
vt 0.512173 0.321166
vt 0.626805 0.228867
vt 0.621853 0.324007
vt 0.611123 0.684230
vt 0.554687 0.683683
vt 0.556531 0.576118
vt 0.620975 0.579489
vt 0.498265 0.682295
vt 0.492010 0.577277
vt 0.458932 0.075064
vt 0.049926 0.041868
vt 0.687769 0.081010
vt 0.049926 0.177557
vt 0.049926 0.210931
vt 0.153991 0.210931
vt 0.153991 0.317318
vt 0.049926 0.317318
vt 0.276561 0.559051
vt 0.276561 0.498674
vt 0.276561 0.438314
vt 0.276561 0.377712
vt 0.276561 0.317318
vt 0.276561 0.210931
vt 0.398094 0.404789
vt 0.049926 0.679842
vt 0.049926 0.786146
vt 0.049926 0.819464
vt 0.049926 0.377712
vt 0.784170 0.337159
vt 0.785900 0.184900
vt 0.759014 0.138795
vt 0.049926 0.118380
vt 0.573996 0.053048
vt 0.049926 0.878520
vt 0.651127 0.452604
vt 0.049926 0.498674
vt 0.475983 0.447841
vt 0.649083 0.498880
vt 0.713053 0.532929
vt 0.558055 0.487267
vt 0.466682 0.495752
vt 0.401582 0.527587
vt 0.379093 0.563002
vt 0.380401 0.686858
vt 0.415551 0.749837
vt 0.734315 0.569093
vt 0.728761 0.692831
vt 0.479904 0.784353
vt 0.552830 0.791950
vt 0.625973 0.786858
vt 0.691473 0.754569
vt 0.276561 0.954925
vt 0.153991 0.954925
vt 0.324702 0.954925
vt 0.049926 0.954925
vn -0.172301 0.985044 0.000729
vn -0.668127 0.744047 0.000713
vn -0.176214 0.974754 0.137124
vn -0.651114 0.750494 0.113176
vn 0.000000 1.000000 -0.000000
vn -0.000000 0.992435 0.122772
vn 0.172301 0.985044 0.000729
vn 0.176214 0.974754 0.137124
vn 0.668127 0.744047 0.000713
vn 0.651114 0.750494 0.113176
vn -0.175426 -0.984493 -0.000000
vn -0.537898 -0.843010 0.000000
vn -0.175521 -0.984196 -0.023452
vn -0.538330 -0.842325 -0.026246
vn -0.000000 -1.000000 -0.000000
vn 0.000000 -0.999748 -0.022440
vn 0.175426 -0.984493 0.000000
vn 0.175521 -0.984196 -0.023452
vn 0.537898 -0.843010 0.000000
vn 0.538330 -0.842325 -0.026246
vn -0.996128 -0.087882 -0.002411
vn -0.996038 -0.085416 -0.024731
vn -0.994954 -0.096246 0.028326
vn -0.538362 -0.842180 0.029980
vn -0.976872 0.213766 -0.005118
vn -0.976946 0.212154 -0.023834
vn -0.974763 0.219606 0.040132
vn -0.667422 0.744218 -0.026204
vn -0.486315 -0.730719 0.479112
vn -0.138224 -0.885826 0.442952
vn -0.320988 -0.468188 0.823266
vn -0.081556 -0.510299 0.856121
vn -0.535717 -0.823844 0.185172
vn -0.172744 -0.973549 0.149538
vn 0.000000 -0.990112 0.140279
vn 0.000000 -0.891562 0.452898
vn 0.000000 -0.492267 0.870444
vn -0.848972 -0.049456 0.526118
vn -0.972796 -0.088849 0.213948
vn -0.424045 0.077272 0.902339
vn -0.731725 0.281311 0.620841
vn -0.183338 0.303395 0.935061
vn -0.939003 0.257167 0.228338
vn 0.081556 -0.510299 0.856121
vn 0.138224 -0.885826 0.442952
vn 0.172744 -0.973549 0.149538
vn 0.486315 -0.730719 0.479112
vn 0.535717 -0.823844 0.185172
vn 0.320988 -0.468188 0.823266
vn 0.848972 -0.049456 0.526118
vn 0.424045 0.077272 0.902339
vn 0.972796 -0.088849 0.213948
vn 0.939003 0.257167 0.228338
vn 0.731725 0.281311 0.620841
vn 0.183338 0.303395 0.935061
vn -0.076407 0.594518 0.800444
vn -0.251596 0.705048 0.663029
vn -0.527743 0.745742 0.406639
vn -0.156611 0.866227 0.474471
vn -0.125670 0.731489 0.670172
vn -0.094249 0.546005 0.832464
vn 0.001038 0.727339 0.686277
vn 0.001128 0.522061 0.852907
vn -0.000000 0.889737 0.456473
vn 0.125383 0.731636 0.670065
vn 0.156611 0.866227 0.474471
vn 0.093804 0.545782 0.832660
vn 0.076407 0.594517 0.800444
vn 0.251596 0.705048 0.663029
vn 0.527743 0.745742 0.406639
vn -0.484854 0.602301 -0.634153
vn -0.724979 0.186034 -0.663172
vn -0.645586 0.731443 -0.219567
vn -0.953687 0.214050 -0.211338
vn -0.165421 0.271077 -0.948237
vn -0.230444 0.098741 -0.968063
vn -0.242845 0.014420 -0.969958
vn -0.749481 -0.029669 -0.661360
vn -0.974412 -0.079886 -0.210093
vn -0.132254 0.738924 -0.660681
vn -0.069554 0.278353 -0.957957
vn -0.188480 0.961433 -0.200305
vn 0.000000 0.985431 -0.170075
vn 0.000000 0.773349 -0.633980
vn 0.000000 0.268744 -0.963212
vn 0.069554 0.278354 -0.957957
vn 0.132254 0.738924 -0.660682
vn 0.188479 0.961433 -0.200305
vn 0.484854 0.602301 -0.634153
vn 0.645586 0.731443 -0.219567
vn 0.165421 0.271077 -0.948237
vn -0.389069 -0.682142 -0.619119
vn -0.139923 -0.376822 -0.915657
vn -0.517025 -0.829358 -0.211777
vn 0.230444 0.098741 -0.968063
vn 0.724979 0.186034 -0.663172
vn 0.953687 0.214050 -0.211338
vn 0.749482 -0.029669 -0.661360
vn 0.974412 -0.079886 -0.210093
vn 0.242845 0.014420 -0.969958
vn 0.517025 -0.829358 -0.211777
vn 0.389069 -0.682142 -0.619119
vn 0.139923 -0.376822 -0.915657
vn -0.000000 -0.775798 -0.630982
vn 0.125847 -0.777543 -0.616109
vn -0.000000 -0.981192 -0.193037
vn 0.170121 -0.964910 -0.200018
vn 0.000000 -0.364013 -0.931394
vn 0.068964 -0.372188 -0.925592
vn -0.068964 -0.372188 -0.925592
vn -0.125847 -0.777543 -0.616109
vn -0.170121 -0.964910 -0.200018
vn -0.037188 0.125628 0.991380
vn 0.000000 0.112266 0.993678
vn -0.036888 0.276368 0.960344
vn 0.000000 0.267978 0.963425
vn 0.037188 0.125628 0.991380
vn 0.036888 0.276368 0.960344
vn -0.040701 0.067781 -0.996870
vn -0.000000 0.063226 -0.997999
vn 0.000000 -0.001612 -0.999999
vn -0.041912 0.006272 -0.999102
vn 0.040701 0.067781 -0.996870
vn 0.041912 0.006272 -0.999102
vn -0.175541 -0.984107 0.026802
vn -0.000000 -0.999671 0.025644
vn 0.175541 -0.984107 0.026802
vn 0.538362 -0.842180 0.029980
vn 0.994954 -0.096246 0.028326
vn 0.996128 -0.087882 -0.002411
vn 0.976872 0.213766 -0.005118
vn 0.974763 0.219606 0.040132
vn -0.177759 0.984051 -0.006685
vn 0.000000 1.000000 -0.000000
vn 0.177759 0.984051 -0.006685
vn 0.667422 0.744218 -0.026204
vn 0.976946 0.212154 -0.023834
vn 0.996038 -0.085416 -0.024731
s 1
g pCube6
usemtl initialShadingGroup
f 91/1/1 64/2/2 119/4/3
f 119/4/3 64/2/2 50/3/4
f 91/1/1 119/4/3 63/5/5
f 63/5/5 119/4/3 49/151/6
f 92/7/7 63/5/5 120/8/8
f 120/8/8 63/5/5 49/151/6
f 92/7/7 120/8/8 65/9/9
f 65/9/9 120/8/8 51/143/10
f 93/11/11 67/12/12 135/14/13
f 135/14/13 67/12/12 60/13/14
f 66/168/15 93/11/11 61/167/16
f 61/167/16 93/11/11 135/14/13
f 94/17/17 66/15/15 138/18/18
f 138/18/18 66/15/15 61/16/16
f 68/19/19 94/17/17 62/20/20
f 62/20/20 94/17/17 138/18/18
f 67/12/12 97/21/21 60/13/14
f 60/13/14 97/21/21 136/22/22
f 97/21/21 67/12/12 129/141/23
f 129/141/23 67/12/12 55/142/24
f 97/21/21 98/25/25 136/22/22
f 136/22/22 98/25/25 132/26/26
f 98/25/25 97/21/21 130/140/27
f 130/140/27 97/21/21 129/141/23
f 64/2/2 98/25/25 50/3/4
f 50/3/4 98/25/25 130/140/27
f 98/25/25 64/2/2 132/26/26
f 132/26/26 64/2/2 58/28/28
f 69/30/29 99/31/30 1/29/31
f 1/29/31 99/31/30 72/32/32
f 2/33/33 70/34/34 69/30/29
f 69/30/29 70/34/34 99/31/30
f 70/34/34 4/35/35 99/31/30
f 99/31/30 4/35/35 71/36/36
f 99/31/30 71/36/36 72/32/32
f 72/32/32 71/36/36 3/37/37
f 69/30/29 100/38/38 2/33/33
f 2/33/33 100/38/38 74/39/39
f 69/30/29 1/29/31 100/38/38
f 100/38/38 1/29/31 73/40/40
f 100/38/38 73/40/40 103/42/41
f 103/42/41 73/40/40 82/41/42
f 74/39/39 100/38/38 81/43/43
f 81/43/43 100/38/38 103/42/41
f 3/37/37 71/36/36 77/45/44
f 77/45/44 71/36/36 101/44/45
f 71/36/36 4/35/35 101/44/45
f 101/44/45 4/35/35 75/46/46
f 101/44/45 75/46/46 76/48/47
f 76/48/47 75/46/46 6/47/48
f 77/45/44 101/44/45 5/49/49
f 5/49/49 101/44/45 76/48/47
f 76/48/47 102/50/50 5/49/49
f 5/49/49 102/50/50 79/51/51
f 76/48/47 6/47/48 102/50/50
f 102/50/50 6/47/48 78/52/52
f 78/52/52 90/53/53 102/50/50
f 102/50/50 90/53/53 106/54/54
f 102/50/50 106/54/54 79/51/51
f 79/51/51 106/54/54 89/55/55
f 7/56/56 80/57/57 82/41/42
f 82/41/42 80/57/57 103/42/41
f 80/57/57 8/58/58 103/42/41
f 103/42/41 8/58/58 81/43/43
f 8/58/58 80/57/57 85/60/59
f 85/60/59 80/57/57 104/59/60
f 80/57/57 7/56/56 104/59/60
f 104/59/60 7/56/56 83/61/61
f 104/59/60 83/61/61 84/63/62
f 84/63/62 83/61/61 9/62/63
f 85/60/59 104/59/60 10/64/64
f 10/64/64 104/59/60 84/63/62
f 84/63/62 105/65/65 10/64/64
f 10/64/64 105/65/65 88/66/66
f 84/63/62 9/62/63 105/65/65
f 105/65/65 9/62/63 86/67/67
f 86/67/67 11/68/68 105/65/65
f 105/65/65 11/68/68 87/69/69
f 105/65/65 87/69/69 88/66/66
f 88/66/66 87/69/69 12/70/70
f 87/69/69 106/54/54 12/70/70
f 12/70/70 106/54/54 90/53/53
f 11/68/68 89/55/55 87/69/69
f 87/69/69 89/55/55 106/54/54
f 25/72/71 107/73/72 13/166/73
f 13/166/73 107/73/72 27/162/74
f 14/75/75 26/76/76 25/72/71
f 25/72/71 26/76/76 107/73/72
f 26/76/76 34/77/77 107/73/72
f 107/73/72 34/77/77 110/78/78
f 107/73/72 110/78/78 27/162/74
f 27/162/74 110/78/78 36/161/79
f 25/72/71 108/80/80 14/75/75
f 14/75/75 108/80/80 30/81/81
f 13/166/73 28/165/82 25/72/71
f 25/72/71 28/165/82 108/80/80
f 28/165/82 16/164/83 108/80/80
f 108/80/80 16/164/83 29/84/84
f 108/80/80 29/84/84 30/81/81
f 30/81/81 29/84/84 15/85/85
f 15/85/85 29/84/84 33/87/86
f 33/87/86 29/84/84 109/86/87
f 29/84/84 16/164/83 109/86/87
f 109/86/87 16/164/83 31/163/88
f 109/86/87 31/163/88 32/90/89
f 32/90/89 31/163/88 18/160/90
f 33/87/86 109/86/87 17/91/91
f 17/91/91 109/86/87 32/90/89
f 110/78/78 34/77/77 35/93/92
f 35/93/92 34/77/77 21/92/93
f 36/161/79 110/78/78 22/154/94
f 22/154/94 110/78/78 35/93/92
f 17/91/91 32/90/89 38/96/95
f 38/96/95 32/90/89 111/95/96
f 32/90/89 18/160/90 111/95/96
f 111/95/96 18/160/90 37/159/97
f 111/95/96 37/159/97 112/99/98
f 112/99/98 37/159/97 39/158/99
f 38/96/95 111/95/96 41/100/100
f 41/100/100 111/95/96 112/99/98
f 39/158/99 24/157/101 112/99/98
f 112/99/98 24/157/101 40/102/102
f 112/99/98 40/102/102 41/100/100
f 41/100/100 40/102/102 23/103/103
f 42/105/104 113/106/105 19/155/106
f 19/155/106 113/106/105 44/156/107
f 20/108/108 43/109/109 42/105/104
f 42/105/104 43/109/109 113/106/105
f 43/109/109 23/103/103 113/106/105
f 113/106/105 23/103/103 40/102/102
f 113/106/105 40/102/102 44/156/107
f 44/156/107 40/102/102 24/157/101
f 20/108/108 42/105/104 46/111/110
f 46/111/110 42/105/104 114/110/111
f 42/105/104 19/155/106 114/110/111
f 114/110/111 19/155/106 45/153/112
f 114/110/111 45/153/112 35/93/92
f 35/93/92 45/153/112 22/154/94
f 46/111/110 114/110/111 21/92/93
f 21/92/93 114/110/111 35/93/92
f 72/32/32 115/113/113 1/29/31
f 1/29/31 115/113/113 73/40/40
f 3/37/37 47/114/114 72/32/32
f 72/32/32 47/114/114 115/113/113
f 115/113/113 47/114/114 117/116/115
f 117/116/115 47/114/114 48/115/116
f 73/40/40 115/113/113 82/41/42
f 82/41/42 115/113/113 117/116/115
f 3/37/37 77/45/44 47/114/114
f 47/114/114 77/45/44 116/117/117
f 77/45/44 5/49/49 116/117/117
f 116/117/117 5/49/49 79/51/51
f 79/51/51 89/55/55 116/117/117
f 116/117/117 89/55/55 118/118/118
f 116/117/117 118/118/118 47/114/114
f 47/114/114 118/118/118 48/115/116
f 117/116/115 48/115/116 83/61/61
f 83/61/61 48/115/116 9/62/63
f 82/41/42 117/116/115 7/56/56
f 7/56/56 117/116/115 83/61/61
f 89/55/55 11/68/68 118/118/118
f 118/118/118 11/68/68 86/67/67
f 118/118/118 86/67/67 48/115/116
f 48/115/116 86/67/67 9/62/63
f 8/58/58 85/60/59 50/139/4
f 50/139/4 85/60/59 119/152/3
f 10/64/64 49/6/6 85/60/59
f 85/60/59 49/6/6 119/152/3
f 10/64/64 88/66/66 49/6/6
f 49/6/6 88/66/66 120/150/8
f 12/70/70 51/10/10 88/66/66
f 88/66/66 51/10/10 120/150/8
f 30/81/81 121/119/119 14/75/75
f 14/75/75 121/119/119 26/76/76
f 15/85/85 52/120/120 30/81/81
f 30/81/81 52/120/120 121/119/119
f 52/120/120 53/121/121 121/119/119
f 121/119/119 53/121/121 123/122/122
f 34/77/77 26/76/76 123/122/122
f 123/122/122 26/76/76 121/119/119
f 15/85/85 33/87/86 52/120/120
f 52/120/120 33/87/86 122/123/123
f 33/87/86 17/91/91 122/123/123
f 122/123/123 17/91/91 38/96/95
f 122/123/123 38/96/95 124/124/124
f 124/124/124 38/96/95 41/100/100
f 52/120/120 122/123/123 53/121/121
f 53/121/121 122/123/123 124/124/124
f 53/121/121 20/108/108 123/122/122
f 123/122/122 20/108/108 46/111/110
f 34/77/77 123/122/122 21/92/93
f 21/92/93 123/122/122 46/111/110
f 41/100/100 23/103/103 124/124/124
f 124/124/124 23/103/103 43/109/109
f 53/121/121 124/124/124 20/108/108
f 20/108/108 124/124/124 43/109/109
f 93/11/11 125/149/125 67/12/12
f 67/12/12 125/149/125 55/142/24
f 66/168/15 54/170/126 93/11/11
f 93/11/11 54/170/126 125/149/125
f 125/125/125 54/148/126 70/34/34
f 70/34/34 54/148/126 4/35/35
f 55/23/24 125/125/125 2/33/33
f 2/33/33 125/125/125 70/34/34
f 94/17/17 126/147/127 66/15/15
f 66/15/15 126/147/127 54/126/126
f 68/19/19 56/128/128 94/17/17
f 94/17/17 56/128/128 126/147/127
f 56/146/128 6/47/48 126/127/127
f 126/127/127 6/47/48 75/46/46
f 126/127/127 75/46/46 54/148/126
f 54/148/126 75/46/46 4/35/35
f 56/146/128 127/145/129 6/47/48
f 6/47/48 127/145/129 78/52/52
f 95/130/130 127/129/129 68/19/19
f 68/19/19 127/129/129 56/128/128
f 96/131/131 128/132/132 95/130/130
f 95/130/130 128/132/132 127/129/129
f 90/53/53 78/52/52 128/144/132
f 128/144/132 78/52/52 127/145/129
f 65/9/9 51/143/10 96/131/131
f 96/131/131 51/143/10 128/132/132
f 90/53/53 128/144/132 12/70/70
f 12/70/70 128/144/132 51/10/10
f 55/23/24 2/33/33 129/24/23
f 129/24/23 2/33/33 74/39/39
f 129/24/23 74/39/39 130/27/27
f 130/27/27 74/39/39 81/43/43
f 81/43/43 8/58/58 130/27/27
f 130/27/27 8/58/58 50/139/4
f 91/1/1 131/133/133 64/2/2
f 64/2/2 131/133/133 58/28/28
f 63/5/5 57/134/134 91/1/1
f 91/1/1 57/134/134 131/133/133
f 131/133/133 57/134/134 28/82/82
f 28/82/82 57/134/134 16/83/83
f 58/28/28 131/133/133 13/71/73
f 13/71/73 131/133/133 28/82/82
f 132/26/26 58/28/28 27/74/74
f 27/74/74 58/28/28 13/71/73
f 27/74/74 36/79/79 132/26/26
f 132/26/26 36/79/79 136/22/22
f 92/7/7 133/135/135 63/5/5
f 63/5/5 133/135/135 57/134/134
f 65/9/9 59/136/136 92/7/7
f 92/7/7 59/136/136 133/135/135
f 59/136/136 18/89/90 133/135/135
f 133/135/135 18/89/90 31/88/88
f 133/135/135 31/88/88 57/134/134
f 57/134/134 31/88/88 16/83/83
f 96/131/131 134/137/137 65/9/9
f 65/9/9 134/137/137 59/136/136
f 95/130/130 137/138/138 96/131/131
f 96/131/131 137/138/138 134/137/137
f 37/97/97 134/137/137 39/98/99
f 39/98/99 134/137/137 137/138/138
f 134/137/137 37/97/97 59/136/136
f 59/136/136 37/97/97 18/89/90
f 60/13/14 22/94/94 135/14/13
f 135/14/13 22/94/94 45/112/112
f 135/14/13 45/112/112 61/167/16
f 61/167/16 45/112/112 19/169/106
f 60/13/14 136/22/22 22/94/94
f 22/94/94 136/22/22 36/79/79
f 68/19/19 62/20/20 95/130/130
f 95/130/130 62/20/20 137/138/138
f 62/20/20 24/101/101 137/138/138
f 137/138/138 24/101/101 39/98/99
f 138/18/18 61/16/16 44/107/107
f 44/107/107 61/16/16 19/104/106
f 62/20/20 138/18/18 24/101/101
f 24/101/101 138/18/18 44/107/107
