# This file uses centimeters as units for non-parametric coordinates.

mtllib carL_low_tri.mtl
g default
v 0.630154 1.908443 0.195791
v 0.000000 2.897259 0.195791
v 0.536724 2.785453 -1.088308
v 0.000000 1.814671 -1.108994
v 0.613002 1.923212 -1.108994
v 0.664673 2.542195 -1.088308
v 0.281491 2.897259 -1.088308
v 0.000000 2.897259 -1.088308
v 0.698834 2.047838 -1.108994
v 0.355506 1.833253 -1.108994
v 0.556586 2.795543 0.195791
v 0.365307 1.815269 0.195791
v 0.718436 2.040590 0.195791
v 0.000000 1.796156 0.195791
v 0.691332 2.542194 0.195790
v 0.285930 2.897259 0.195791
v 0.398092 2.034916 0.594160
v 0.000000 2.007440 0.649718
v 0.348544 2.588036 0.526263
v 0.000000 2.588036 0.526263
v 0.348544 2.684285 -1.285702
v 0.000000 2.684285 -1.285702
v 0.398092 1.993752 -1.300803
v 0.000000 1.988744 -1.300803
v -0.630154 1.908443 0.195791
v -0.536724 2.785453 -1.088308
v -0.613002 1.923212 -1.108994
v -0.664673 2.542195 -1.088308
v -0.281491 2.897259 -1.088308
v -0.698834 2.047838 -1.108994
v -0.355506 1.833253 -1.108994
v -0.556586 2.795543 0.195791
v -0.365307 1.815269 0.195791
v -0.718436 2.040590 0.195791
v -0.691332 2.542194 0.195790
v -0.285930 2.897259 0.195791
v -0.398092 2.034916 0.594160
v -0.348544 2.588036 0.526263
v -0.348544 2.684285 -1.285702
v -0.398092 1.993752 -1.300803
vt 0.049926 0.619685
vt 0.049926 0.559051
vt 0.324702 0.819464
vt 0.384806 0.129060
vt 0.458932 0.075064
vt 0.355582 0.173686
vt 0.349383 0.325684
vt 0.573996 0.053048
vt 0.475983 0.447841
vt 0.563191 0.462954
vt 0.324702 0.619685
vt 0.324702 0.679842
vt 0.728761 0.692831
vt 0.734315 0.569093
vt 0.324702 0.786146
vt 0.324702 0.559051
vt 0.324702 0.498674
vt 0.713053 0.532929
vt 0.324702 0.878520
vt 0.512212 0.225863
vt 0.512173 0.321166
vt 0.569531 0.226408
vt 0.566957 0.324587
vt 0.611123 0.684230
vt 0.620975 0.579489
vt 0.554687 0.683683
vt 0.556531 0.576118
vt 0.398094 0.404789
vt 0.049926 0.679842
vt 0.049926 0.786146
vt 0.049926 0.819464
vt 0.049926 0.878520
vt 0.049926 0.498674
vt 0.649083 0.498880
vt 0.558055 0.487267
vt 0.552830 0.791950
vt 0.625973 0.786858
vt 0.691473 0.754569
vt 0.324702 0.954925
vt 0.049926 0.954925
vt 0.324702 0.559051
vt 0.324702 0.619685
vt 0.049926 0.619685
vt 0.049926 0.559051
vt 0.324702 0.498674
vt 0.049926 0.498674
vt 0.324702 0.786146
vt 0.324702 0.819464
vt 0.049926 0.819464
vt 0.049926 0.786146
vt 0.324702 0.679842
vt 0.049926 0.679842
vt 0.384806 0.129060
vt 0.458932 0.075064
vt 0.512212 0.225863
vt 0.355582 0.173686
vt 0.573996 0.053048
vt 0.569531 0.226408
vt 0.566957 0.324587
vt 0.512173 0.321166
vt 0.349383 0.325684
vt 0.563191 0.462954
vt 0.475983 0.447841
vt 0.398094 0.404789
vt 0.691473 0.754569
vt 0.625973 0.786858
vt 0.611123 0.684230
vt 0.728761 0.692831
vt 0.552830 0.791950
vt 0.554687 0.683683
vt 0.556531 0.576118
vt 0.620975 0.579489
vt 0.734315 0.569093
vt 0.558055 0.487267
vt 0.649083 0.498880
vt 0.713053 0.532929
vt 0.324702 0.878520
vt 0.049926 0.878520
vt 0.324702 0.954925
vt 0.049926 0.954925
vn 0.193074 0.972004 -0.133905
vn 0.172033 0.969719 0.173351
vn 0.675222 0.726364 -0.128343
vn 0.653912 0.742552 0.144967
vn 0.000000 0.989825 -0.142293
vn 0.000000 0.982091 0.188410
vn 0.975770 -0.069133 -0.207591
vn 0.973619 -0.143367 0.177514
vn 0.535538 -0.836786 -0.113971
vn 0.537417 -0.841073 0.061485
vn 0.961891 0.207734 0.177798
vn 0.951038 0.197659 -0.237609
vn 0.201799 -0.972282 0.118090
vn 0.452772 -0.301922 0.838952
vn 0.062362 -0.991334 0.115617
vn 0.153532 -0.380359 0.912006
vn 0.356434 0.353774 0.864753
vn 0.033752 0.415887 0.908790
vn 0.243297 0.208413 -0.947297
vn 0.000000 0.213213 -0.977006
vn 0.228245 -0.159341 -0.960476
vn 0.007549 -0.198412 -0.980090
vn 0.166267 -0.978936 -0.118486
vn 0.051787 -0.990775 -0.125235
vn -0.193074 0.972004 -0.133905
vn -0.675222 0.726364 -0.128343
vn -0.172033 0.969719 0.173351
vn -0.653912 0.742552 0.144968
vn 0.000000 0.989825 -0.142293
vn -0.000000 0.982091 0.188410
vn -0.975770 -0.069133 -0.207591
vn -0.535538 -0.836786 -0.113971
vn -0.973619 -0.143367 0.177514
vn -0.537416 -0.841073 0.061485
vn -0.951038 0.197659 -0.237609
vn -0.961891 0.207734 0.177798
vn -0.201799 -0.972282 0.118090
vn -0.452772 -0.301922 0.838952
vn -0.062362 -0.991334 0.115617
vn -0.153532 -0.380359 0.912006
vn -0.033752 0.415887 0.908790
vn -0.356434 0.353774 0.864754
vn -0.243297 0.208413 -0.947297
vn 0.000000 0.213213 -0.977006
vn -0.007549 -0.198412 -0.980090
vn -0.228245 -0.159341 -0.960476
vn -0.166267 -0.978936 -0.118486
vn -0.051787 -0.990775 -0.125235
s 1
g pCube13
usemtl initialShadingGroup
f 7/16/1 16/2/2 3/11/3
f 3/11/3 16/2/2 11/1/4
f 8/17/5 2/33/6 7/16/1
f 7/16/1 2/33/6 16/2/2
f 9/15/7 13/30/8 5/3/9
f 5/3/9 13/30/8 1/31/10
f 15/29/11 13/30/8 6/12/12
f 6/12/12 13/30/8 9/15/7
f 3/11/3 11/1/4 6/12/12
f 6/12/12 11/1/4 15/29/11
f 1/4/10 13/6/8 12/5/13
f 12/5/13 13/6/8 17/20/14
f 12/5/13 17/20/14 14/8/15
f 14/8/15 17/20/14 18/22/16
f 19/21/17 20/23/18 17/20/14
f 17/20/14 20/23/18 18/22/16
f 19/21/17 17/20/14 15/7/11
f 15/7/11 17/20/14 13/6/8
f 19/21/17 16/9/2 20/23/18
f 20/23/18 16/9/2 2/10/6
f 15/7/11 11/28/4 19/21/17
f 19/21/17 11/28/4 16/9/2
f 6/13/12 21/24/19 3/38/3
f 3/38/3 21/24/19 7/37/1
f 21/24/19 22/26/20 7/37/1
f 7/37/1 22/26/20 8/36/5
f 23/25/21 24/27/22 21/24/19
f 21/24/19 24/27/22 22/26/20
f 9/14/7 23/25/21 6/13/12
f 6/13/12 23/25/21 21/24/19
f 23/25/21 10/34/23 24/27/22
f 24/27/22 10/34/23 4/35/24
f 9/14/7 5/18/9 23/25/21
f 23/25/21 5/18/9 10/34/23
f 10/19/23 5/3/9 12/32/13
f 12/32/13 5/3/9 1/31/10
f 4/39/24 10/19/23 14/40/15
f 14/40/15 10/19/23 12/32/13
s 6
f 29/41/25 26/42/26 36/44/27
f 36/44/27 26/42/26 32/43/28
f 8/45/29 29/41/25 2/46/30
f 2/46/30 29/41/25 36/44/27
f 30/47/31 27/48/32 34/50/33
f 34/50/33 27/48/32 25/49/34
f 30/47/31 34/50/33 28/51/35
f 28/51/35 34/50/33 35/52/36
f 26/42/26 28/51/35 32/43/28
f 32/43/28 28/51/35 35/52/36
f 25/53/34 33/54/37 34/56/33
f 34/56/33 33/54/37 37/55/38
f 33/54/37 14/57/39 37/55/38
f 37/55/38 14/57/39 18/58/40
f 18/58/40 20/59/41 37/55/38
f 37/55/38 20/59/41 38/60/42
f 34/56/33 37/55/38 35/61/36
f 35/61/36 37/55/38 38/60/42
f 38/60/42 20/59/41 36/63/27
f 36/63/27 20/59/41 2/62/30
f 35/61/36 38/60/42 32/64/28
f 32/64/28 38/60/42 36/63/27
f 29/66/25 39/67/43 26/65/26
f 26/65/26 39/67/43 28/68/35
f 8/69/29 22/70/44 29/66/25
f 29/66/25 22/70/44 39/67/43
f 22/70/44 24/71/45 39/67/43
f 39/67/43 24/71/45 40/72/46
f 30/73/31 28/68/35 40/72/46
f 40/72/46 28/68/35 39/67/43
f 40/72/46 24/71/45 31/75/47
f 31/75/47 24/71/45 4/74/48
f 30/73/31 40/72/46 27/76/32
f 27/76/32 40/72/46 31/75/47
f 31/77/47 33/78/37 27/48/32
f 27/48/32 33/78/37 25/49/34
f 4/79/48 14/80/39 31/77/47
f 31/77/47 14/80/39 33/78/37
